<?xml version="1.0"?>
<svg xmlns="http://www.w3.org/2000/svg" height="512px" viewBox="0 -71 483.842 483" width="512px" class=""><g><path d="m248.636719 95.46875c1.808593 0 3.542969-.695312 4.84375-1.949219l52.273437-50.144531 54.1875 42.683594c2.527344 1.992187 6.089844 2.003906 8.628906.027344l76.457032-59.417969-2.734375 35.566406c-.296875 3.851563 2.585937 7.21875 6.441406 7.515625.183594.015625.367187.019531.546875.019531 3.652344-.003906 6.691406-2.820312 6.972656-6.460937l3.953125-51.398438c.140625-1.855468-.460937-3.695312-1.679687-5.105468-1.214844-1.410157-2.941406-2.277344-4.800782-2.410157l-55.347656-3.957031c-3.859375-.273438-7.207031 2.628906-7.484375 6.484375-.277343 3.855469 2.625 7.207031 6.484375 7.480469l37.191406 2.660156-70.269531 54.609375-54.664062-43.0625c-2.746094-2.160156-6.660157-1.96875-9.179688.449219l-56.667969 54.359375c-2.058593 1.976562-2.710937 5.011719-1.644531 7.660156 1.066407 2.652344 3.636719 4.390625 6.492188 4.390625zm0 0" data-original="#000000" class="active-path" data-old_color="#ff6666" fill="#ff6666"/><path d="m476.84375 325.558594h-14.84375v-205.777344c-.191406-3.996094-3.453125-7.152344-7.449219-7.222656h-63.21875c-3.976562.078125-7.195312 3.25-7.332031 7.222656v205.777344h-37v-167.011719c-.179688-3.933594-3.4375-7.023437-7.375-6.988281h-63.226562c-3.863282 0-7.398438 3.121094-7.398438 6.988281v167.011719h-37v-94.820313c-.128906-3.957031-3.339844-7.117187-7.300781-7.179687h-63.21875c-3.867188 0-7.480469 3.3125-7.480469 7.179687v94.820313h-72v-35h7.460938c33.089843 0 59.539062-24.644532 59.539062-54.671875v-11.328125c0-3.867188-2.664062-7-6.53125-7h-12.644531c-19.609375 0-36.824219 8.585937-47.824219 21.828125v-34.828125h7.460938c33.089843 0 59.539062-24.375 59.539062-54.398438v-11.320312c0-3.867188-2.664062-7.277344-6.53125-7.277344h-12.644531c-18.433594-.101562-35.957031 7.996094-47.824219 22.097656v-35.101562h7.460938c33.089843 0 59.539062-24.101563 59.539062-54.128906v-11.324219c.089844-1.757813-.570312-3.472657-1.8125-4.71875-1.246094-1.25-2.957031-1.914063-4.71875-1.828125h-12.644531c-19.609375 0-36.824219 8.128906-47.824219 21.371094v-33.769532c0-3.867187-3.132812-7-7-7s-7 3.132813-7 7v33.707032c-1.179688-1.421876-2.480469-2.742188-3.886719-3.941407-11.417969-11.320312-27.679687-18.367187-44.308593-17.367187h-12.648438c-3.863281 0-7.15625 2.683594-7.15625 6.550781v11.320313c0 30.027343 27.078125 54.128906 60.167969 54.128906h7.832031v35.035156c-1.175781-1.496094-2.476562-2.886719-3.886719-4.164062-11.699219-11.394532-27.398437-17.761719-43.730469-17.734376-.175781 0-.402343-.136718-.578124-.136718h-12.648438c-3.949219.117187-7.1054688 3.324218-7.15625 7.277344v11.324218c0 30.023438 27.078125 54.398438 60.167969 54.398438h7.832031v34.761718c-1.175781-1.492187-2.476562-2.886718-3.886719-4.160156-11.714843-11.359375-27.414062-17.675781-43.730469-17.601562h-13.226562c-3.894531-.011719-7.0820312 3.105468-7.15625 7v11.324218c0 30.03125 27.078125 54.675782 60.167969 54.675782h7.832031v35h-37.066406c-3.867188 0-7 3.132812-7 7 0 3.867187 3.132812 7 7 7h40.066406c1.070312.863281 2.441406 1.269531 3.808594 1.132812 1.371094.140625 2.742187-.265625 3.8125-1.132812h398.222656c3.863281 0 7-3.132813 7-7 0-3.867188-3.136719-7-7-7zm-392.84375-53.539063c0-22.308593 20.453125-40.460937 45.824219-40.460937h5.175781v4.328125c0 22.304687-20.171875 40.671875-45.539062 40.671875h-5.460938zm0-85.726562c0-22.308594 20.453125-40.734375 45.824219-40.734375h5.175781v4.601562c0 22.296875-20.171875 40.398438-45.539062 40.398438h-5.460938zm0-85.730469c0-22.304688 20.453125-40 45.824219-40h5.175781v3.871094c0 22.308594-20.171875 40.128906-45.539062 40.128906h-5.460938zm-18 4h-5.832031c-25.367188-.003906-46.167969-17.824219-46.167969-40.132812v-3.871094h5.863281c13.023438-1 25.605469 4.601562 34.390625 13.308594 7.515625 7.453124 11.746094 16.792968 11.746094 26.695312zm0 86h-5.832031c-25.367188-.003906-46.167969-18.097656-46.167969-40.402344v-4.601562h5.863281c12.964844 0 25.609375 4.964844 34.390625 13.675781 7.371094 7.089844 11.597656 16.832031 11.746094 27.058594zm0 86h-5.832031c-25.367188-.003906-46.167969-18.371094-46.167969-40.675781v-4.328125h6.28125c12.65625-.097656 24.851562 4.761718 33.972656 13.539062 7.515625 7.453125 11.746094 17.011719 11.746094 26.921875zm102 49v-88.003906h50v88zm115 0v-160.003906h50v160zm115 0v-199.003906h50v199zm0 0" data-original="#000000" class="active-path" data-old_color="#ff6666" fill="#ff6666"/></g> </svg>
